<svg width="200" height="200" viewBox="0 0 200 200" fill="none" xmlns="http://www.w3.org/2000/svg">
<path d="M175.678 100.339C175.678 120.913 167.476 134.145 154.449 142.493C141.072 151.065 122.104 154.79 100.339 154.79C78.5736 154.79 59.6053 151.065 46.2284 142.493C33.2015 134.145 25 120.913 25 100.339C25 58.7303 58.7303 25 100.339 25C141.947 25 175.678 58.7303 175.678 100.339Z" fill="#EB1C24" stroke="black" stroke-width="10"/>
<circle cx="100.5" cy="71.5" r="33.5" fill="white"/>
<path fill-rule="evenodd" clip-rule="evenodd" d="M179.892 110.85C180.41 107.449 180.678 103.839 180.678 100.012C180.678 77.6702 171.558 57.4586 156.838 42.8965C148.107 49.8899 142.517 60.6403 142.517 72.6966C142.517 93.5099 159.179 110.431 179.892 110.85Z" fill="white"/>
<path fill-rule="evenodd" clip-rule="evenodd" d="M20.7853 110.85C20.2677 107.449 20 103.839 20 100.012C20 77.6702 29.1197 57.4586 43.8395 42.8965C52.57 49.8899 58.1609 60.6403 58.1609 72.6966C58.1609 93.5099 41.4985 110.431 20.7853 110.85Z" fill="white"/>
<path d="M175.678 100.339C175.678 120.913 167.476 134.145 154.449 142.493C141.072 151.065 122.104 154.79 100.339 154.79C78.5736 154.79 59.6053 151.065 46.2284 142.493C33.2015 134.145 25 120.913 25 100.339C25 58.7303 58.7303 25 100.339 25C141.947 25 175.678 58.7303 175.678 100.339Z" stroke="black" stroke-width="10"/>
<path d="M151.943 140.9C154.496 153.958 147.719 180.075 100.185 180.075V180.06C52.7904 180.004 46.031 153.936 48.5816 140.895C65.1033 124.867 89.7414 120.825 100.262 120.825C110.027 120.825 135.421 124.867 151.943 140.9Z" fill="#FEDBB4" stroke="black" stroke-width="10"/>
<rect x="109.979" y="132.073" width="9.64066" height="30.5287" rx="4.82033" fill="black"/>
<rect x="112.791" y="134.483" width="4.01694" height="10.0423" rx="2.00847" fill="white"/>
<rect x="80.6558" y="132.073" width="9.64066" height="30.5287" rx="4.82033" fill="black"/>
<rect x="83.4677" y="134.483" width="4.01694" height="10.0423" rx="2.00847" fill="white"/>
</svg>
